<?xml version="1.0" encoding="utf-8"?>
<!-- Generator: Adobe Illustrator 16.0.0, SVG Export Plug-In . SVG Version: 6.00 Build 0)  -->
<!DOCTYPE svg PUBLIC "-//W3C//DTD SVG 1.1//EN" "http://www.w3.org/Graphics/SVG/1.1/DTD/svg11.dtd">
<svg version="1.1" id="Layer_1" xmlns="http://www.w3.org/2000/svg" xmlns:xlink="http://www.w3.org/1999/xlink" x="0px" y="0px"
	 width="327.465px" height="277.359px" viewBox="0 0 327.465 277.359" enable-background="new 0 0 327.465 277.359"
	 xml:space="preserve">
<path fill="none" stroke="#4075BA" stroke-width="3" stroke-miterlimit="10" d="M211.753,61.859
	c1.241-3.964,2.372-8.596,3.123-12.488c0.913-4.735-1.377-8.301-3.121-12.514c-2.432-5.874-12.462-43.164,3.498-15.998
	c1.084,1.845,5.468,3.011,6.596,4.852c1.097,1.789,0.726,3.911,1.179,4.789c1.808,3.502,5.078,4.853,9.224,6.25
	c3.246,1.094,6.747,1.48,9.987,2.624c3.11,1.098,6.472,3.339,10.013,3.486c9.285,0.384,8.228,7.377,12.257,14.495
	c4.986,8.809,15.311,3.323,22.658,0.569c-0.135,5.218,7.576,6.113,11.112,8.325c4.736,2.961,7.33,4.338,8.975,9.611
	c1.259,4.038,3.232,8.483,6.002,11.973c3.375,4.252,11.411-0.817,11.829,3.869"/>
<path fill="none" stroke="#4075BA" stroke-width="3" stroke-miterlimit="10" d="M219.753,60.359c1.363,0.022,6.5-13.75,1.507-12.833
	"/>
<path fill="none" stroke="#4075BA" stroke-width="3" stroke-miterlimit="10" d="M215.253,20.859
	c-0.817,0.432-5.612-11.017-9.873-11.924c-2.313,4.757-7.191,7.347-10.752,10.8c-3.466,3.362-1.185,2.978-2.363,7.636
	c-0.625,2.47-3.314,5.097-5.136,6.976c-2.263,2.335-5.062,4.354-7.351,6.503c-3.277,3.077-4.104,5.898-6.4,9.534
	c-2.995,4.744-8.604,7.42-12.75,10.9c-1.974-1.61-4.071-3.534-5.763-5.361c-2.988,6.274-6.453,12.55-14.024,11.85
	c-0.281-1.127-1.315-1.769-1.687-2.836c-0.526,0.478-1.435,0.642-2.026,1.349c-4.82-1.23-4.055-4.471-6.349-7.452
	c-2.228-2.896-4.888-3.406-5.5-7.801c-3.205,3.727-6.462,8.596-9.026,12.827c-2.448,4.04-3.778,11.158-9.5,11.5"/>
<path fill="none" stroke="#4075BA" stroke-width="3" stroke-miterlimit="10" d="M202.753,62.359c0.766-5.91-4.151-8.862-3.377-14.5
	c0.38-2.77,2.004-5.344,2.402-7.974c0.457-3.011-0.157-6.064,0.475-9.026"/>
<path fill="none" stroke="#4075BA" stroke-width="3" stroke-miterlimit="10" d="M187.753,56.359c-5.898,7.043,10.67,13.259,9.5,22"
	/>
<path fill="none" stroke="#4075BA" stroke-width="3" stroke-miterlimit="10" d="M261.253,91.359
	c-2.451-5.409-4.355-12.287-5.891-18.111c-0.951-3.611-3.279-23.075-10.102-15.258c-4.582,5.25-10.225,8.994-15.805,12.867
	c4.587,1.889,9.076,7.128,11.422,11.377c2.271,4.117,5.993,8.348,6.382,13.102"/>
<path fill="none" stroke="#4075BA" stroke-width="3" stroke-miterlimit="10" d="M85.753,108.359
	c5.423-1.062,3.213-4.118,5.865-7.135c2.196-2.5,6.463-3.165,9.247-5.865c3.209-3.113,10.517-14.041,13.889-14"/>
<path fill="none" stroke="#4075BA" stroke-width="3" stroke-miterlimit="10" d="M1.503,158.103
	c0.19-6.03,14.873-12.181,20.861-16.632c9.585-7.126,16.151-11.063,17.389-23.611c0.729-7.395,2.234-13.957,8.875-18.625
	c4.326-3.041,3.795-0.034,7.987,1.263c4.96,1.535,5.281-2.173,9.649-3.162c4.351-0.985,6.454-0.081,11.016-2.864
	c3.225-1.967,6.68-3.949,9.608-6.487c3.886-3.369,15.816-18.723,21.365-12.625"/>
<path fill="none" stroke="#4075BA" stroke-width="3" stroke-miterlimit="10" d="M160.753,61.859c0.592,2.539,5.832,6.429,8,8.5"/>
<path fill="none" stroke="#4075BA" stroke-width="3" stroke-miterlimit="10" d="M176.253,69.359c-1.712,4.467-3.819,18.293,0,22"/>
<path fill="none" stroke="#4075BA" stroke-width="3" stroke-miterlimit="10" d="M124.753,81.859
	c1.172-1.137,7.828,4.938,10.124,6.376c4.176,2.617,7.317,0.732,11.876,2.235c4.466,1.472,17.379,12.181,18,16.889"/>
<path fill="none" stroke="#4075BA" stroke-width="3" stroke-miterlimit="10" d="M112.253,112.859
	c1.268-1.909,10.258-2.698,13.5-3.514c4.2-1.057,7.388-1.077,11.527,0.014c3.332,0.878,6.867,3.176,10.475,2.997
	c3.778-0.188,6.628-2.848,9.998-3.995c6.922-2.356,16.695-1.217,24-1.502c4.594-0.179,7.214,2.849,10.375,1.363
	c2.464-1.158,5.631-6.225,7.249-8.35c1.196-1.572,2.12-3.175,3.378-4.562c6.709,4.965,14.637-11.739,17.111-16.389
	c7.528,4.266,8.356,13.074,16.775,14.55c7.551,1.324,14.434,1.701,20.748,6.263c3.394,2.451,6.004,3.825,7.378,8.137
	c1.567,4.919-0.311,6.459,4.108,9.863c6.015,4.635,11.195,8.209,18.014,11.488c6.515,3.132,8.854,13.725,16.363,13.137
	c5.087-0.397,6.178-4.081,10.875-0.363c3.027,2.397,4.294,5.958,5.625,9.363"/>
<path fill="none" stroke="#4075BA" stroke-width="3" stroke-miterlimit="10" d="M62.253,119.859c0.563-6.48,6.296-11.703,7.438-17.9
	c-1.809-1.18-3.329-2.884-4.938-4.1"/>
<path fill="none" stroke="#4075BA" stroke-width="3" stroke-miterlimit="10" d="M27.253,153.359
	c4.722-4.792,9.9-10.995,16.111-13.889c7.279-3.392,12.722-3.108,16.889-10.611"/>
<path fill="none" stroke="#4075BA" stroke-width="3" stroke-miterlimit="10" d="M111.617,165.019
	c6.02-3.819,14.547-6.704,22.138-8.157c2.433-0.466,3.198,0.32,5.148-1.379c1.42-1.237,1.271-4.131,2.852-5.133
	c2.715-1.721,8.32-0.423,11.496-1.381c14.831-4.472,28.064-18.32,40.026-28.01c1.925-1.56,3.93-3.05,5.876-4.548
	c-0.422,6.421,4.66,8.547,8.724,12.324c1.496,1.392,2.593,4.054,4.476,4.999c2.906,1.458,5.562-1.14,7.801,0.115
	c2.181,1.222,3.192,6.025,4.614,8.021c1.435,2.015,3.479,3.636,5.362,5.1c3.095,2.405,13.527,7.126,13.623,10.389"/>
<path fill="none" stroke="#4075BA" stroke-width="3" stroke-miterlimit="10" d="M204.929,149.266
	c0.513,0.146-0.949-0.187-0.751-0.748c-2.424-3.778,0.277-6.039,1.199-9.549c0.981-3.741,0.947-5.398,3.376-8.609"/>
<path fill="none" stroke="#4075BA" stroke-width="3" stroke-miterlimit="10" d="M204.253,107.859
	c-0.678-0.197-0.674-0.598-1.45-0.41c8.297,9.239,17.953,19.281,28.825,25.035c6.181,3.271,10.72,9.333,16.625,13.014
	c3.914,2.439,4.344,4.971,7.488,7.836c2.579,2.349,9.855,3.15,9.855,5.869"/>
<path fill="none" stroke="#4075BA" stroke-width="3" stroke-miterlimit="10" d="M247.253,134.859
	c-2.648-2.623-1.32-6.663-1.988-10.012c-0.647-3.244-2.339-5.606-3.888-8.588c-3.407-6.556-5.29-10.455-11.124-15.4"/>
<path fill="none" stroke="#4075BA" stroke-width="3" stroke-miterlimit="10" d="M280.253,91.359
	c-3.365,9.86,7.813,12.151,14.6,17.365c3.838,2.948,7.828,4.506,12.4,5.635c4.329,1.069,9.623-0.3,10,5.5"/>
<path fill="none" stroke="#4075BA" stroke-width="3" stroke-miterlimit="10" d="M279.253,125.359c0.801,1.848,0.166,4.713,1.125,6.9
	c0.681,1.551,2.729,3.04,3.86,4.235c2.377,2.509,5.051,5.858,7.89,8.001c2.937,2.219,7.268,3.174,10.512,5.502
	c3.667,2.632,7.063,7.108,11.613,8.861"/>
<path fill="none" stroke="#4075BA" stroke-width="3" stroke-miterlimit="10" d="M39.84,161.031
	c-0.661-0.909,13.031-3.697,15.386-4.785c3.596-1.66,7.004-2.288,10.513-4.014c3.51-1.728,6.918-4.867,11.014-5.773
	c4.029-0.891,8.317,0.367,11.986,0.915c7.248,1.081,15.895-3.09,23.014-5.515c7.506-2.556,16.023-2.978,23.013-6.375
	c7.302-3.551,12.877-10.685,19.001-15.476c3.452,6.084,8.226,9.519,15.011,7.476c6.545-1.969,12.035-5.235,17.475-9.625"/>
<path fill="none" stroke="#4075BA" stroke-width="3" stroke-miterlimit="10" d="M139.753,79.359c2.071,2.701,5.271,4.738,7,6.5"/>
<line fill="none" stroke="#4075BA" stroke-miterlimit="10" x1="324.003" y1="129.047" x2="294.316" y2="129.047"/>
<line fill="none" stroke="#4075BA" stroke-miterlimit="10" x1="296.753" y1="132.443" x2="323.254" y2="132.443"/>
<line fill="none" stroke="#4075BA" stroke-miterlimit="10" x1="324.003" y1="135.609" x2="301.586" y2="135.609"/>
<line fill="none" stroke="#4075BA" stroke-miterlimit="10" x1="303.17" y1="138.672" x2="322.566" y2="138.672"/>
<line fill="none" stroke="#4075BA" stroke-miterlimit="10" x1="322.566" y1="141.526" x2="315.254" y2="141.526"/>
<line fill="none" stroke="#4075BA" stroke-miterlimit="10" x1="317.337" y1="147.526" x2="298.445" y2="147.526"/>
<line fill="none" stroke="#4075BA" stroke-miterlimit="10" x1="303.17" y1="151.026" x2="319.753" y2="151.026"/>
<line fill="none" stroke="#4075BA" stroke-miterlimit="10" x1="305.753" y1="154.469" x2="320.378" y2="154.469"/>
<line fill="none" stroke="#4075BA" stroke-miterlimit="10" x1="74.087" y1="146.359" x2="57.253" y2="146.441"/>
<line fill="none" stroke="#4075BA" stroke-miterlimit="10" x1="70.337" y1="149.472" x2="45.878" y2="149.472"/>
<line fill="none" stroke="#4075BA" stroke-miterlimit="10" x1="8.128" y1="152.109" x2="139.753" y2="152.109"/>
<line fill="none" stroke="#4075BA" stroke-miterlimit="10" x1="3.965" y1="154.469" x2="138.816" y2="154.469"/>
<line fill="none" stroke="#4075BA" stroke-miterlimit="10" x1="3.965" y1="156.609" x2="130.192" y2="156.609"/>
<path fill="none" stroke="#4075BA" stroke-miterlimit="10" d="M159.441,154.469"/>
<path fill="none" stroke="#4075BA" stroke-miterlimit="10" d="M140.128,154.469"/>
<path fill="none" stroke="#4075BA" stroke-miterlimit="10" d="M156.753,156.609"/>
<path fill="none" stroke="#4075BA" stroke-miterlimit="10" d="M136.702,156.609"/>
<path fill="none" stroke="#4075BA" stroke-miterlimit="10" d="M44.253,105.734c3,0,6,0,9,0"/>
<path fill="none" stroke="#4075BA" stroke-miterlimit="10" d="M45.878,102.484c1.958,0,3.917,0,5.875,0"/>
<path fill="none" stroke="#4075BA" stroke-miterlimit="10" d="M41.878,108.734c1.006,0.357,2.428,0.125,3.5,0.125
	c2.077,0,4.153,0,6.23,0c1.465,0,2.93,0,4.395,0"/>
<path fill="none" stroke="#4075BA" stroke-miterlimit="10" d="M41.628,112.359c2.375,0,4.75,0,7.125,0"/>
<path fill="none" stroke="#4075BA" stroke-miterlimit="10" d="M40.378,115.609c2.167,0,4.333,0,6.5,0"/>
<path fill="none" stroke="#4075BA" stroke-miterlimit="10" d="M39.878,118.359c3.875,0,5.198,0.125,7.481,0.125
	c2.006,0,4.013,0,6.019,0"/>
<path fill="none" stroke="#4075BA" stroke-miterlimit="10" d="M40.128,120.984c4.083,0,8.167,0,12.25,0"/>
<path fill="none" stroke="#4075BA" stroke-miterlimit="10" d="M39.753,123.609c4,0,5.591,0.125,8,0.125"/>
<path fill="none" stroke="#4075BA" stroke-miterlimit="10" d="M38.17,127.109c1.028,0,3.305,0,5.333,0"/>
<path fill="none" stroke="#4075BA" stroke-miterlimit="10" d="M36.837,129.859c2.278,0,4.555,0,6.833,0"/>
<path fill="none" stroke="#4075BA" stroke-miterlimit="10" d="M34.337,133.192c4.074,0,8.184,0.354,12.25,0.25"/>
<path fill="none" stroke="#4075BA" stroke-miterlimit="10" d="M30.503,136.192c3.309-0.001,6.608,0.167,9.917,0.167"/>
<path fill="none" stroke="#4075BA" stroke-miterlimit="10" d="M26.337,139.359c2.917,0,4.34,0.083,6.169,0.083
	c1.277,0,2.554,0,3.831,0"/>
<line fill="none" stroke="#4075BA" stroke-miterlimit="10" x1="22.003" y1="142.776" x2="31.419" y2="142.776"/>
<line fill="none" stroke="#4075BA" stroke-miterlimit="10" x1="17.587" y1="145.442" x2="28.42" y2="145.442"/>
<line fill="none" stroke="#4075BA" stroke-miterlimit="10" x1="14.17" y1="148.109" x2="25.587" y2="148.109"/>
<line fill="none" stroke="#4075BA" stroke-miterlimit="10" x1="10.42" y1="150.109" x2="24.17" y2="150.109"/>
<line fill="none" stroke="#4075BA" stroke-miterlimit="10" x1="80.42" y1="125.192" x2="84.42" y2="125.192"/>
<line fill="none" stroke="#4075BA" stroke-miterlimit="10" x1="76.587" y1="128.859" x2="83.587" y2="128.859"/>
<line fill="none" stroke="#4075BA" stroke-miterlimit="10" x1="74.087" y1="131.192" x2="82.42" y2="131.192"/>
<line fill="none" stroke="#4075BA" stroke-miterlimit="10" x1="69.691" y1="134.692" x2="77.42" y2="134.692"/>
<line fill="none" stroke="#4075BA" stroke-miterlimit="10" x1="103.92" y1="124.018" x2="110.087" y2="124.018"/>
<line fill="none" stroke="#4075BA" stroke-miterlimit="10" x1="104.92" y1="128.026" x2="116.003" y2="128.026"/>
<line fill="none" stroke="#4075BA" stroke-miterlimit="10" x1="106.753" y1="131.192" x2="112.253" y2="131.192"/>
<line fill="none" stroke="#4075BA" stroke-miterlimit="10" x1="109.503" y1="133.462" x2="118.753" y2="133.462"/>
<line fill="none" stroke="#4075BA" stroke-miterlimit="10" x1="102.42" y1="137.192" x2="126.587" y2="137.192"/>
<line fill="none" stroke="#4075BA" stroke-miterlimit="10" x1="96.42" y1="140.109" x2="115.253" y2="140.109"/>
<line fill="none" stroke="#4075BA" stroke-miterlimit="10" x1="86.92" y1="142.776" x2="106.753" y2="142.776"/>
<line fill="none" stroke="#4075BA" stroke-miterlimit="10" x1="137.086" y1="134.193" x2="148.42" y2="134.193"/>
<line fill="none" stroke="#4075BA" stroke-miterlimit="10" x1="141.292" y1="131.192" x2="150.253" y2="131.192"/>
<line fill="none" stroke="#4075BA" stroke-miterlimit="10" x1="144.753" y1="128.859" x2="151.587" y2="128.859"/>
<line fill="none" stroke="#4075BA" stroke-miterlimit="10" x1="147.921" y1="125.192" x2="152.92" y2="125.192"/>
<line fill="none" stroke="#4075BA" stroke-width="2" stroke-miterlimit="10" x1="160.753" y1="61.859" x2="156.253" y2="61.859"/>
<line fill="none" stroke="#4075BA" stroke-width="2" stroke-miterlimit="10" x1="162.729" y1="64.856" x2="154.878" y2="64.856"/>
<line fill="none" stroke="#4075BA" stroke-width="2" stroke-miterlimit="10" x1="164.753" y1="67.359" x2="152.753" y2="67.359"/>
<line fill="none" stroke="#4075BA" stroke-width="2" stroke-miterlimit="10" x1="167.628" y1="70.359" x2="152.003" y2="70.359"/>
<line fill="none" stroke="#4075BA" stroke-width="2" stroke-miterlimit="10" x1="172.753" y1="75.746" x2="154.878" y2="75.746"/>
<line fill="none" stroke="#4075BA" stroke-width="2" stroke-miterlimit="10" x1="157.628" y1="78.359" x2="174.373" y2="78.359"/>
<line fill="none" stroke="#4075BA" stroke-width="2" stroke-miterlimit="10" x1="172.753" y1="75.746" x2="174.717" y2="75.746"/>
<path fill="none" stroke="#4075BA" stroke-width="2" stroke-miterlimit="10" d="M163.378,78.359"/>
<line fill="none" stroke="#4075BA" stroke-width="2" stroke-miterlimit="10" x1="156.253" y1="81.718" x2="163.816" y2="81.718"/>
<line fill="none" stroke="#4075BA" stroke-width="2" stroke-miterlimit="10" x1="154.878" y1="84.609" x2="164.753" y2="84.609"/>
<line fill="none" stroke="#4075BA" stroke-width="2" stroke-miterlimit="10" x1="152.753" y1="87.859" x2="166.878" y2="87.859"/>
<line fill="none" stroke="#4075BA" stroke-width="2" stroke-miterlimit="10" x1="148.193" y1="91.104" x2="163.816" y2="91.104"/>
<line fill="none" stroke="#4075BA" stroke-width="2" stroke-miterlimit="10" x1="152.003" y1="94.359" x2="166.878" y2="94.359"/>
<line fill="none" stroke="#4075BA" stroke-width="2" stroke-miterlimit="10" x1="157.628" y1="98.093" x2="177.378" y2="98.093"/>
<line fill="none" stroke="#4075BA" stroke-width="2" stroke-miterlimit="10" x1="161.003" y1="101.434" x2="180.878" y2="101.434"/>
<line fill="none" stroke="#4075BA" stroke-width="2" stroke-miterlimit="10" x1="117.128" y1="93.109" x2="124.753" y2="93.109"/>
<line fill="none" stroke="#4075BA" stroke-width="2" stroke-miterlimit="10" x1="114.128" y1="96.859" x2="120.941" y2="96.859"/>
<line fill="none" stroke="#4075BA" stroke-width="2" stroke-miterlimit="10" x1="113.378" y1="100.859" x2="118.253" y2="100.859"/>
<line fill="none" stroke="#4075BA" stroke-width="2" stroke-miterlimit="10" x1="193.813" y1="69.359" x2="200.374" y2="69.359"/>
<line fill="none" stroke="#4075BA" stroke-width="2" stroke-miterlimit="10" x1="195.918" y1="72.99" x2="204.753" y2="72.99"/>
<line fill="none" stroke="#4075BA" stroke-width="2" stroke-miterlimit="10" x1="197.248" y1="76.572" x2="210.503" y2="76.572"/>
<path fill="none" stroke="#4075BA" stroke-width="2" stroke-miterlimit="10" d="M242.42,62.859c2.437,1.279,4.694,4.109,6,6.5"/>
<path fill="none" stroke="#4075BA" stroke-width="2" stroke-miterlimit="10" d="M237.086,65.359
	c3.802,2.242,7.623,6.687,10.112,10.312c1.111,1.619,1.933,3.196,2.554,5.057c0.351,1.049,0.427,2.386,1.001,3.297"/>
<path fill="none" stroke="#4075BA" stroke-width="2" stroke-miterlimit="10" d="M240.253,74.693
	c1.438,0.393,2.826,4.594,3.658,6.033c1.348,2.331,2.986,4.144,4.883,6.004c3.044,2.986,4.272,6.583,5.126,10.629"/>
<path fill="none" stroke="#4075BA" stroke-width="2" stroke-miterlimit="10" d="M245.086,57.193
	c3.563-1.375,6.345-6.167,8.698-9.046c0.995-1.217,1.656-2.845,2.636-3.954"/>
<path fill="none" stroke="#4075BA" stroke-width="2" stroke-miterlimit="10" d="M285.253,65.359c1.818,7.473,5.03,14.609,6.642,22.2
	c0.58,2.729,0.938,4.709,2.537,7.038c0.748,1.089,1.132,2.291,1.821,3.429"/>
<path fill="none" stroke="#4075BA" stroke-width="2" stroke-miterlimit="10" d="M301.586,94.526
	c3.284,1.485,3.979,5.669,4.667,8.667"/>
<path fill="none" stroke="#4075BA" stroke-width="2" stroke-miterlimit="10" d="M160.753,168.859c-0.59-4.753,3.503-6.33,6.38-9.072
	c2.878-2.742,5.119-6.01,7.953-8.844c3.959-3.959,1.75,1.198,8.309,1.198c5.731,0,8.875,6.877,13.358,10.385"/>
<path fill="none" stroke="#4075BA" stroke-width="2" stroke-miterlimit="10" d="M137.087,170.192
	c6.949-5.151,14.851-9.539,21.658-14.723c0.863-0.657,4.032-4.777,4.574-4.892c0,0,5.922,4.394,6.685,5.573"/>
<path fill="none" stroke="#4075BA" stroke-width="2" stroke-miterlimit="10" d="M0.754,158.192
	c4.78,1.727,12.433,0.334,17.599,0.334c5.689,0,11.366,0.649,16.903,1.955c3.412,0.804,8.008,1.411,10.675,2.89
	c3.485,1.934,7.234,4.953,10.397,7.428c3.867,3.024,7.063,6.541,11.172,9.318c3.821,2.582,9.658,6.6,14.587,6.409"/>
<path fill="none" stroke="#4075BA" stroke-width="2" stroke-miterlimit="10" d="M154.837,177.948
	c-10.315,0.3-20.081-3.492-28.958-8.037c-5.757-2.947-12.086-4.599-18.418-5.71c-7.473-1.311-13.381-0.936-20.708,0.028
	c-7.684,1.011-16.363-2.372-24.072-3.136c-4.627-0.459-15.034-1.421-19.427,0.767"/>
<path fill="none" stroke="#4075BA" stroke-width="2" stroke-miterlimit="10" d="M119.087,188.526
	c-2.364-1.638-4.962-7.129-7.87-9.566c-3.597-3.015-7.524-6.146-11.554-8.548c-5.95-3.544-10.846-3.822-17.164-6.025"/>
<path fill="none" stroke="#4075BA" stroke-width="2" stroke-miterlimit="10" d="M153.42,191.192
	c2.702-1.058,5.919-4.561,8.806-6.273c4.245-2.521,9-4.729,13.512-6.726c6.471-2.863,12.79-4.515,19.601-6.067
	c13.741-3.132,27.361-7.037,41.162-9.859c15.981-3.269,31.621-3.074,47.879-3.074c9.002,0,18.004,0,27.006,0
	c2.979,0,4.222,0.906,6.908-0.666"/>
<path fill="none" stroke="#4075BA" stroke-width="2" stroke-miterlimit="10" d="M123.087,189.526
	c8.429-4.676,17.298-7.896,26.684-10.334c4.218-1.095,8.562-1.969,12.717-3.327c6.466-2.114,12.512-5.938,18.797-8.598
	c8.941-3.783,18.987-6.379,28.795-6.749c5.403-0.204,13.557-1.356,18.674,0.674"/>
<path fill="none" stroke="#4075BA" stroke-width="2" stroke-miterlimit="10" d="M95.087,118.526c1.392-1.242,2.155-3.759,2-5.667"/>
<path fill="none" stroke="#4075BA" stroke-width="2" stroke-miterlimit="10" d="M100.42,119.526
	c1.165-2.994-0.634-9.771,1.333-11.667"/>
<path fill="none" stroke="#4075BA" stroke-width="2" stroke-miterlimit="10" d="M223.586,82.026c0.083-2.545,2.005-5.298,0-7.667"/>
<path fill="none" stroke="#4075BA" stroke-width="2" stroke-miterlimit="10" d="M230.586,80.859c1.386,1.118,0.25,5.235,0.663,6.95
	c0.275,1.142,2.367,4.872,3.504,4.884"/>
<path fill="none" stroke="#4075BA" stroke-width="2" stroke-miterlimit="10" d="M240.086,93.193c-1.852-0.726-3.203-4.421-2.5-6.333
	"/>
<path fill="none" stroke="#4075BA" stroke-width="2" stroke-miterlimit="10" d="M221.718,57.193
	c6.688,2.832,8.225,1.667,9.535,1.667"/>
<path fill="none" stroke="#4075BA" stroke-width="2" stroke-miterlimit="10" d="M231.253,48.859c-2.333,0-4.667,0-7,0"/>
<path fill="none" stroke="#4075BA" stroke-width="2" stroke-miterlimit="10" d="M229.586,52.679c-1.723,0.796-4.357,0.835-6-0.5"/>
<line fill="none" stroke="#4075BA" stroke-miterlimit="10" x1="199.377" y1="99.872" x2="213.003" y2="99.872"/>
<line fill="none" stroke="#4075BA" stroke-miterlimit="10" x1="196.753" y1="103.193" x2="208.753" y2="103.193"/>
<line fill="none" stroke="#4075BA" stroke-miterlimit="10" x1="199.355" y1="101.434" x2="210.503" y2="101.434"/>
<line fill="none" stroke="#4075BA" stroke-miterlimit="10" x1="184.17" y1="118.275" x2="175.181" y2="118.275"/>
<line fill="none" stroke="#4075BA" stroke-miterlimit="10" x1="180.878" y1="120.191" x2="172.086" y2="120.191"/>
<line fill="none" stroke="#4075BA" stroke-miterlimit="10" x1="179.675" y1="122.55" x2="169.92" y2="122.55"/>
<line fill="none" stroke="#4075BA" stroke-miterlimit="10" x1="202.803" y1="107.449" x2="226.486" y2="107.449"/>
<line fill="none" stroke="#4075BA" stroke-miterlimit="10" x1="205.974" y1="110.937" x2="229.212" y2="110.937"/>
<line fill="none" stroke="#4075BA" stroke-miterlimit="10" x1="208.419" y1="112.818" x2="230.919" y2="112.818"/>
<line fill="none" stroke="#4075BA" stroke-miterlimit="10" x1="211.433" y1="116.651" x2="233.254" y2="116.651"/>
<line fill="none" stroke="#4075BA" stroke-miterlimit="10" x1="214.644" y1="120.191" x2="231.129" y2="120.191"/>
<line fill="none" stroke="#4075BA" stroke-miterlimit="10" x1="218.795" y1="121.901" x2="230.171" y2="121.901"/>
<line fill="none" stroke="#4075BA" stroke-miterlimit="10" x1="220.629" y1="123.651" x2="229.712" y2="123.651"/>
<line fill="none" stroke="#4075BA" stroke-miterlimit="10" x1="221.295" y1="125.234" x2="228.379" y2="125.234"/>
<line fill="none" stroke="#4075BA" stroke-miterlimit="10" x1="233.292" y1="133.462" x2="241.42" y2="133.462"/>
<line fill="none" stroke="#4075BA" stroke-miterlimit="10" x1="240.086" y1="138.026" x2="248.42" y2="138.026"/>
<line fill="none" stroke="#4075BA" stroke-miterlimit="10" x1="244.253" y1="141.526" x2="252.586" y2="141.526"/>
<line fill="none" stroke="#4075BA" stroke-miterlimit="10" x1="247.253" y1="144.843" x2="256.42" y2="144.843"/>
<line fill="none" stroke="#4075BA" stroke-miterlimit="10" x1="252.586" y1="148.76" x2="260.586" y2="148.76"/>
<line fill="none" stroke="#4075BA" stroke-miterlimit="10" x1="201.064" y1="122.678" x2="208.753" y2="122.678"/>
<line fill="none" stroke="#4075BA" stroke-miterlimit="10" x1="204.929" y1="126.27" x2="211.433" y2="126.27"/>
<line fill="none" stroke="#4075BA" stroke-miterlimit="10" x1="208.753" y1="130.359" x2="215.253" y2="130.359"/>
<line fill="none" stroke="#4075BA" stroke-miterlimit="10" x1="221.576" y1="133.462" x2="227.361" y2="133.462"/>
<line fill="none" stroke="#4075BA" stroke-miterlimit="10" x1="222.051" y1="137.192" x2="231.503" y2="137.192"/>
<line fill="none" stroke="#4075BA" stroke-miterlimit="10" x1="223.586" y1="140.109" x2="235.586" y2="140.109"/>
<line fill="none" stroke="#4075BA" stroke-miterlimit="10" x1="226.486" y1="142.776" x2="238.753" y2="142.776"/>
<line fill="none" stroke="#4075BA" stroke-miterlimit="10" x1="229.457" y1="146.441" x2="241.42" y2="146.441"/>
<line fill="none" stroke="#4075BA" stroke-miterlimit="10" x1="234.753" y1="149.266" x2="245.42" y2="149.266"/>
<line fill="none" stroke="#4075BA" stroke-miterlimit="10" x1="240.086" y1="153.182" x2="248.42" y2="153.182"/>
<line fill="none" stroke="#4075BA" stroke-miterlimit="10" x1="206.099" y1="109.193" x2="228.129" y2="109.193"/>
<line fill="none" stroke="#4075BA" stroke-miterlimit="10" x1="232.379" y1="118.526" x2="215.253" y2="118.526"/>
<line fill="none" stroke="#4075BA" stroke-miterlimit="10" x1="210.545" y1="114.859" x2="232.379" y2="114.859"/>
<line fill="none" stroke="#4075BA" stroke-miterlimit="10" x1="286.42" y1="67.609" x2="291.92" y2="67.609"/>
<line fill="none" stroke="#4075BA" stroke-miterlimit="10" x1="286.699" y1="70.491" x2="293.836" y2="70.491"/>
<line fill="none" stroke="#4075BA" stroke-miterlimit="10" x1="287.714" y1="73.622" x2="295.753" y2="73.622"/>
<line fill="none" stroke="#4075BA" stroke-miterlimit="10" x1="289.17" y1="76.193" x2="297.17" y2="76.193"/>
<line fill="none" stroke="#4075BA" stroke-miterlimit="10" x1="289.704" y1="79.599" x2="298.445" y2="79.599"/>
<line fill="none" stroke="#4075BA" stroke-miterlimit="10" x1="290.576" y1="82.421" x2="298.445" y2="82.421"/>
<line fill="none" stroke="#4075BA" stroke-miterlimit="10" x1="291.546" y1="86.026" x2="301.586" y2="86.026"/>
<line fill="none" stroke="#4075BA" stroke-miterlimit="10" x1="292.163" y1="88.813" x2="303.919" y2="88.813"/>
<line fill="none" stroke="#4075BA" stroke-miterlimit="10" x1="258.586" y1="57.193" x2="261.253" y2="57.193"/>
<line fill="none" stroke="#4075BA" stroke-miterlimit="10" x1="258.586" y1="60.193" x2="262.336" y2="60.193"/>
<line fill="none" stroke="#4075BA" stroke-miterlimit="10" x1="257.17" y1="63.359" x2="262.336" y2="63.359"/>
<line fill="none" stroke="#4075BA" stroke-miterlimit="10" x1="255.253" y1="66.109" x2="263.003" y2="66.109"/>
<line fill="none" stroke="#4075BA" stroke-miterlimit="10" x1="255.253" y1="68.776" x2="263.92" y2="68.776"/>
<line fill="none" stroke="#4075BA" stroke-miterlimit="10" x1="256.42" y1="72.026" x2="263.42" y2="72.026"/>
<line fill="none" stroke="#4075BA" stroke-miterlimit="10" x1="255.904" y1="75.28" x2="264.67" y2="75.28"/>
<line fill="none" stroke="#4075BA" stroke-miterlimit="10" x1="256.735" y1="78.305" x2="266.082" y2="78.305"/>
<line fill="none" stroke="#4075BA" stroke-miterlimit="10" x1="259.128" y1="81.692" x2="266.082" y2="81.692"/>
<line fill="none" stroke="#4075BA" stroke-miterlimit="10" x1="259.753" y1="85.026" x2="267.586" y2="85.026"/>
<line fill="none" stroke="#4075BA" stroke-miterlimit="10" x1="259.92" y1="88.149" x2="270.42" y2="88.149"/>
<line fill="none" stroke="#4075BA" stroke-miterlimit="10" x1="52.378" y1="158.192" x2="125.628" y2="158.192"/>
<line fill="none" stroke="#4075BA" stroke-width="0.5" stroke-miterlimit="10" x1="49.753" y1="160.009" x2="123.087" y2="160.009"/>
<line fill="none" stroke="#4075BA" stroke-width="0.5" stroke-miterlimit="10" x1="65.972" y1="161.031" x2="117.738" y2="161.031"/>
<line fill="none" stroke="#4075BA" stroke-width="0.5" stroke-miterlimit="10" x1="70.92" y1="162.047" x2="114.503" y2="162.047"/>
<line fill="none" stroke="#4075BA" stroke-width="0.5" stroke-miterlimit="10" x1="76.441" y1="162.922" x2="90.191" y2="162.922"/>
<line fill="none" stroke="#4075BA" stroke-width="0.75" stroke-miterlimit="10" x1="157.753" y1="156.609" x2="162.753" y2="156.609"/>
<line fill="none" stroke="#4075BA" stroke-width="0.75" stroke-miterlimit="10" x1="153.545" y1="158.526" x2="159.441" y2="158.526"/>
<line fill="none" stroke="#4075BA" stroke-width="0.75" stroke-miterlimit="10" x1="150.42" y1="160.483" x2="156.753" y2="160.483"/>
<line fill="none" stroke="#4075BA" stroke-width="0.75" stroke-miterlimit="10" x1="148.42" y1="162.551" x2="153.42" y2="162.551"/>
<line fill="none" stroke="#4075BA" stroke-width="0.75" stroke-miterlimit="10" x1="145.772" y1="164.265" x2="150.253" y2="164.265"/>
<line fill="none" stroke="#4075BA" stroke-width="0.75" stroke-miterlimit="10" x1="143.684" y1="165.628" x2="147.253" y2="165.628"/>
<line fill="none" stroke="#4075BA" stroke-width="0.75" stroke-miterlimit="10" x1="140.128" y1="168.021" x2="143.684" y2="168.021"/>
<line fill="none" stroke="#4075BA" stroke-width="0.75" stroke-miterlimit="10" x1="187.753" y1="153.182" x2="178.725" y2="153.182"/>
<line fill="none" stroke="#4075BA" stroke-width="0.75" stroke-miterlimit="10" x1="187.753" y1="154.469" x2="176.482" y2="154.469"/>
<line fill="none" stroke="#4075BA" stroke-width="0.75" stroke-miterlimit="10" x1="190.69" y1="156.177" x2="173.878" y2="156.177"/>
<line fill="none" stroke="#4075BA" stroke-width="0.75" stroke-miterlimit="10" x1="192.791" y1="158.526" x2="175.181" y2="158.526"/>
<line fill="none" stroke="#4075BA" stroke-width="0.75" stroke-miterlimit="10" x1="194.111" y1="160.009" x2="177.685" y2="160.009"/>
<path fill="none" stroke="#4075BA" stroke-width="2" stroke-miterlimit="10" d="M190.087,135.193
	c0.384,2.255-0.032,2.263,1.011,4.275c0.175,0.338,1.543,0.226,1.92,0.793c0.509,0.767,0.105,2.617,0.402,3.598"/>
<path fill="none" stroke="#4075BA" stroke-width="2" stroke-miterlimit="10" d="M217.42,143.859c-0.3,1.89-2.015,3.095-2.667,5"/>
<path fill="none" stroke="#4075BA" stroke-width="3" stroke-miterlimit="10" d="M325.046,91.327
	c0.607,5.871,0.919,11.832,0.919,17.866c0,92.231-72.73,166.667-164.962,166.667c-76.104,0-139.432-48.647-159.562-118.266"/>
<path fill="none" stroke="#4075BA" stroke-width="3" stroke-miterlimit="10" d="M325.046,91.327"/>
<path fill="none" stroke="#4075BA" stroke-width="3" stroke-miterlimit="10" d="M0.556,155.335"/>
<path fill="none" stroke="#4075BA" stroke-width="3" stroke-miterlimit="10" d="M176.253,46.609"/>
<path fill="none" stroke="#4075BA" stroke-width="3" stroke-miterlimit="10" d="M48.093,99.526
	c-4.187-8.882-6.527-18.806-6.527-29.276c0-37.97,30.78-68.75,68.75-68.75c39.938,0,61.625,35.359,61.625,51.446"/>
<line fill="none" stroke="#4075BA" stroke-miterlimit="10" x1="279.636" y1="97.359" x2="274.086" y2="97.359"/>
<line fill="none" stroke="#4075BA" stroke-miterlimit="10" x1="281.98" y1="100.223" x2="275.003" y2="100.223"/>
<line fill="none" stroke="#4075BA" stroke-miterlimit="10" x1="286.92" y1="104.525" x2="280.253" y2="104.525"/>
<line fill="none" stroke="#4075BA" stroke-miterlimit="10" x1="291.546" y1="107.859" x2="283.17" y2="107.859"/>
<line fill="none" stroke="#4075BA" stroke-miterlimit="10" x1="296.753" y1="111.025" x2="285.92" y2="111.025"/>
<line fill="none" stroke="#4075BA" stroke-miterlimit="10" x1="290.086" y1="113.859" x2="301.17" y2="113.859"/>
<line fill="none" stroke="#4075BA" stroke-miterlimit="10" x1="295.253" y1="116.775" x2="314.253" y2="116.775"/>
<line fill="none" stroke="#4075BA" stroke-miterlimit="10" x1="311.42" y1="94.526" x2="324.003" y2="94.526"/>
<line fill="none" stroke="#4075BA" stroke-miterlimit="10" x1="312.586" y1="98.026" x2="324.003" y2="98.026"/>
<line fill="none" stroke="#4075BA" stroke-miterlimit="10" x1="310.67" y1="101.109" x2="324.003" y2="101.109"/>
<line fill="none" stroke="#4075BA" stroke-miterlimit="10" x1="310.67" y1="104.525" x2="324.753" y2="104.525"/>
<line fill="none" stroke="#4075BA" stroke-miterlimit="10" x1="311.086" y1="107.4" x2="325.17" y2="107.4"/>
<line fill="none" stroke="#4075BA" stroke-miterlimit="10" x1="306.92" y1="110.609" x2="325.17" y2="110.609"/>
<line fill="none" stroke="#4075BA" stroke-miterlimit="10" x1="325.17" y1="113.859" x2="310.67" y2="113.859"/>
<line fill="none" stroke="#4075BA" stroke-miterlimit="10" x1="316.045" y1="116.775" x2="325.753" y2="116.775"/>
<line fill="none" stroke="#4075BA" stroke-miterlimit="10" x1="320.378" y1="119.859" x2="324.753" y2="119.859"/>
<line fill="none" stroke="#4075BA" stroke-miterlimit="10" x1="313.586" y1="123.025" x2="324.003" y2="123.025"/>
<line fill="none" stroke="#4075BA" stroke-miterlimit="10" x1="291.546" y1="125.775" x2="324.753" y2="125.775"/>
<line fill="none" stroke="#4075BA" stroke-miterlimit="10" x1="254.316" y1="98.026" x2="241.003" y2="98.026"/>
<line fill="none" stroke="#4075BA" stroke-miterlimit="10" x1="243.128" y1="101.434" x2="258.753" y2="101.434"/>
<line fill="none" stroke="#4075BA" stroke-miterlimit="10" x1="246.503" y1="104.525" x2="263.1" y2="104.525"/>
<line fill="none" stroke="#4075BA" stroke-miterlimit="10" x1="249.878" y1="107.4" x2="264.607" y2="107.4"/>
<line fill="none" stroke="#4075BA" stroke-miterlimit="10" x1="252.191" y1="110.234" x2="265.17" y2="110.234"/>
<line fill="none" stroke="#4075BA" stroke-miterlimit="10" x1="255.316" y1="113.359" x2="265.751" y2="113.359"/>
<line fill="none" stroke="#4075BA" stroke-miterlimit="10" x1="258.191" y1="116.651" x2="267.066" y2="116.651"/>
<line fill="none" stroke="#4075BA" stroke-miterlimit="10" x1="260.534" y1="119.859" x2="270.816" y2="119.859"/>
<line fill="none" stroke="#4075BA" stroke-miterlimit="10" x1="261.253" y1="123.047" x2="275.003" y2="123.047"/>
<line fill="none" stroke="#4075BA" stroke-miterlimit="10" x1="264.753" y1="126.27" x2="279.253" y2="126.27"/>
<line fill="none" stroke="#4075BA" stroke-miterlimit="10" x1="267.066" y1="129.047" x2="279.253" y2="129.047"/>
<line fill="none" stroke="#4075BA" stroke-miterlimit="10" x1="267.066" y1="132.109" x2="279.253" y2="132.109"/>
<line fill="none" stroke="#4075BA" stroke-miterlimit="10" x1="272.003" y1="135.609" x2="282.816" y2="135.609"/>
<line fill="none" stroke="#4075BA" stroke-miterlimit="10" x1="272.003" y1="138.672" x2="285.378" y2="138.672"/>
<line fill="none" stroke="#4075BA" stroke-miterlimit="10" x1="275.441" y1="142.109" x2="284.941" y2="142.109"/>
<line fill="none" stroke="#4075BA" stroke-miterlimit="10" x1="277.128" y1="144.843" x2="286.941" y2="144.843"/>
<line fill="none" stroke="#4075BA" stroke-miterlimit="10" x1="280.191" y1="147.859" x2="288.316" y2="147.859"/>
<line fill="none" stroke="#4075BA" stroke-miterlimit="10" x1="254.253" y1="151.359" x2="294.316" y2="151.359"/>
<line fill="none" stroke="#4075BA" stroke-miterlimit="10" x1="257.246" y1="154.469" x2="305.753" y2="154.469"/>
<line fill="none" stroke="#4075BA" stroke-miterlimit="10" x1="263.329" y1="157.472" x2="310.359" y2="157.472"/>
</svg>
