<?xml version="1.0" encoding="utf-8"?>
<!-- Generator: Adobe Illustrator 16.0.0, SVG Export Plug-In . SVG Version: 6.00 Build 0)  -->
<!DOCTYPE svg PUBLIC "-//W3C//DTD SVG 1.1//EN" "http://www.w3.org/Graphics/SVG/1.1/DTD/svg11.dtd">
<svg version="1.1" id="Layer_1" xmlns="http://www.w3.org/2000/svg" xmlns:xlink="http://www.w3.org/1999/xlink" x="0px" y="0px"
	 width="591.607px" height="577.37px" viewBox="0 0 591.607 577.37" enable-background="new 0 0 591.607 577.37"
	 xml:space="preserve">
<path fill="#010101" d="M0,0"/>
<path fill="#C3996C" d="M11.175,4.825c71.167,134.222,182.776,254.304,290.08,362.322l4.334,4.482l0.075-0.074
	c26.09,26.213,52.642,52.502,79.375,79.189c-22.539,17.706-46.586,33.708-71.645,48.186l34.104,34.103l82.138-82.139
	c50.606,33.033,91.187,76.077,124.426,126.476l33.545-33.54c-50.765-32.862-95.314-71.965-126.739-124.164l82.4-82.402
	l-34.103-34.103c-13.286,26.121-29.181,50.221-47.179,72.428c-52.417-52.354-103.35-102.608-155.54-149.976
	c-0.268-0.243-0.517-0.504-0.784-0.747C219.488,146.725,117.277,63.961,11.175,4.825L11.175,4.825z M138.5,126.5l294.986,280.951
	c-5.212,5.311-10.566,10.51-16.023,15.577L134.869,129L138.5,126.5z"/>
<path fill="#C2986B" d="M20.605,575.577h16.27c32.14-25.94,137.897-147.74,212.258-234.71c-16.367-16.367,0,0-16.367-16.367
	C162.099,415.861,63.383,537.021,20.605,575.577z"/>
<path fill="#C2986B" d="M62.5,563.833l-0.47,11.744h27.001L228.5,396.834l9.333-14.334c3.981-2.691,22.5-23.903,26.466-26.466
	c-8.167-8.167,0,0-8.167-8.167C189.576,423.031,82.488,550.442,62.5,563.833z"/>
<path fill="#C2986B" d="M117.031,575.577h16c21.377-18.422,97.826-118.403,158.769-192.043c-13.667-13.667,0,0-13.667-13.667
	L117.031,575.577z"/>
<polygon fill="#C2986B" points="436.673,87.539 436.673,87.539 436.674,87.539 "/>
<path fill="#C2986B" d="M582.405,78.533c-19.244-41.622-63.332-64.167-108.062-65.224c-1.27-0.031-2.545-0.055-3.816-0.049
	l-0.002-0.003c-19.066,0.072-38.112,4.072-55.281,12.155c-17.473,8.229-33.538,26.607-45.412,48.67s-19.59,47.658-21.541,69.042
	c-1.324,14.523-9.951,38.07-30.416,70.709c18.875,17.613,0,0,18.875,17.613c4.27-11.667,19-24.447,21.5-22.197l-5.253,16.747
	c-5.5,2.75-10.799,5.095-12.197,9.229c23.289,21.732,0,0,23.289,21.732c28.102-39.42,33.777-68.099,33.919-92.515
	c0.088-14.935-0.975-29.246,2.675-44.438c0.444-1.844,0.96-3.689,1.556-5.543h0.023c6.301-13.253,12.893-20.271,19.814-24.554
	c5.586-3.454,11.695-5.209,18.597-6.369l0,0h0.001h-0.001c-16.313,15.047-22.876,27.424-25.866,39.869
	c-2.994,12.465-2.17,25.547-2.26,41.133c-0.109,18.507-1.992,40.097-14.344,66.659c-0.004,0.01-0.02,0.015-0.023,0.024
	c-7.888,10.003-21.435,20.678-30.117,29.442c16.874,15.746,0,0,16.874,15.746c25.354-34.061,46.971-69.788,50.537-92.351
	c-0.986-1.805-1.985-3.6-2.845-5.519c-14.65-32.72-3.323-75.012,31.287-90.289c25.462-11.241,58.231-2.462,70.355,24.384
	c0.116,0.259,0.251,0.493,0.365,0.754c10.349,18.719,4.804,38.493-7.27,48.209c-6.119,4.923-14.347,7.412-22.365,5.104
	c-8.021-2.308-14.814-9.158-19.061-19.545l13.443-5.494c3.105,7.596,6.742,10.23,9.627,11.062c2.885,0.829,6.042,0.115,9.238-2.457
	c6.391-5.142,11.11-17.044,3.428-30.362l-0.219-0.366l-0.171-0.389c-8.323-19.309-32.642-25.931-51.515-17.601
	c-26.499,11.697-35.469,45.16-23.871,71.061c15.969,35.665,60.654,47.591,95.199,31.797
	C587.899,183.019,603.438,124.03,582.405,78.533z M417.555,64.334c-17.457,15.678-30.464,39.355-35.615,65.905
	c-3.622-8.836-5.575-16.696-5.201-24.676c0.229-4.935,1.334-10.079,3.718-15.728c7.074-14.016,16.361-26.408,27.399-36.322
	c6.086-5.466,12.75-10.167,19.859-13.928c8.505-4.055,15.965-5.617,22.779-5.543c2.519,0.027,4.949,0.271,7.317,0.705
	c8.046,1.477,15.517,5.253,22.585,10.308C456.574,40.827,435.023,48.644,417.555,64.334z M571.754,137.485
	c-0.438,8.864-2.695,17.873-6.928,26.157c-9.708,14.731-27.639,19.845-38.873,16.239l-0.071-0.194
	c21.738-8.063,30.479-25.188,31.36-42.935c0.096-1.945,0.089-3.885-0.023-5.81c1.126-10.354-0.321-22.398-4.256-33.791
	c-1.745-5.054-4.006-10.028-6.88-14.563l0.051-0.072l-0.002,0.003C563.7,92.762,572.865,115.083,571.754,137.485z"/>
<path fill="none" stroke="#66BC47" stroke-miterlimit="10" d="M414.25,311.5"/>
<path fill="none" stroke="#66BC47" stroke-miterlimit="10" d="M313.875,217.833"/>
</svg>
