<?xml version="1.0" encoding="utf-8"?>
<!-- Generator: Adobe Illustrator 16.0.0, SVG Export Plug-In . SVG Version: 6.00 Build 0)  -->
<!DOCTYPE svg PUBLIC "-//W3C//DTD SVG 1.1//EN" "http://www.w3.org/Graphics/SVG/1.1/DTD/svg11.dtd">
<svg version="1.1" id="Layer_1" xmlns="http://www.w3.org/2000/svg" xmlns:xlink="http://www.w3.org/1999/xlink" x="0px" y="0px"
	 width="568.222px" height="567.873px" viewBox="0 0 568.222 567.873" enable-background="new 0 0 568.222 567.873"
	 xml:space="preserve">
<path fill="#C3996C" d="M285.345,0c-30.612,0-55.248,24.767-55.248,55.693c0,30.929,24.636,55.695,55.248,55.695
	c30.612,0,55.283-24.767,55.283-55.694c0-30.925-24.671-55.693-55.283-55.693V0z M432.106,45.347L338.5,115.422
	c3.186,6.904,5.709,14.375,7.471,22.3l82.477-61.745l3.66-30.63H432.106z M126.892,46.877l10.608,32.76l76.722,47.066
	c3.004-7.104,6.591-13.701,10.684-19.687L126.892,46.877L126.892,46.877z M453.96,50.54l-3.699,31.413l49.531,62.903
	c5.587-5.027,12.212-8.927,19.498-11.319L453.96,50.54z M105.001,51.735L43.182,147.36c7.584,1.581,14.573,4.753,20.657,9.15
	l50.017-77.36l-8.854-27.416L105.001,51.735z M238.805,118.075c-8.511,12.913-14.685,29.775-16.624,48.633
	c-2.391,23.234,2.134,44.781,10.832,60.438c8.698,15.656,21.006,25.099,34.999,26.558c13.995,1.458,27.976-5.226,39.672-18.752
	c11.694-13.526,20.507-33.729,22.896-56.964c2.08-20.229-1.063-39.191-7.657-54.088c-11.148,6.245-23.954,9.825-37.578,9.825
	c-17.439,0-33.568-5.826-46.542-15.652L238.805,118.075z M536.138,153.187c-17.866,0-32.125,14.26-32.125,32.124
	c0,17.864,14.26,32.123,32.124,32.123s32.085-14.26,32.085-32.124c0-17.867-14.221-32.125-32.086-32.125L536.138,153.187z
	 M32.123,168.577C14.258,168.577,0,182.797,0,200.663c0,17.865,14.258,32.124,32.124,32.124c17.865,0,32.086-14.26,32.086-32.124
	C64.21,182.797,49.989,168.576,32.123,168.577L32.123,168.577z M231.668,254.413c-11.977,8.75-19.516,20.894-19.758,32.91
	c-0.221,10.829,4.721,20.016,13.931,27.044s22.728,11.367,38.286,10.459c31.122-1.817,55.257-23.915,55.696-45.571
	c0.177-8.729-3.016-16.388-9.077-22.711c-12.893,10.579-28.345,16.445-44.562,14.755c-13.244-1.379-24.961-7.582-34.516-16.884
	V254.413z M315.228,329.12c-10.944,8.331-24.463,14.236-39.111,16.773l57.116,96.97l18.975-16.286L315.228,329.12L315.228,329.12z
	 M217.586,335.771l-11.469,109.706l22.149,15.951l29.323-114.152C242.658,346.881,228.891,342.81,217.586,335.771L217.586,335.771z
	 M367.149,443.162l-18.79,16.137l77.958,60.997c2.982-11.634,9.749-22.135,19.312-29.62L367.149,443.162z M196.853,466.321
	l-66.824,35.561c5.896,7.365,9.987,16.328,11.391,26.297c0.107,0.774,0.187,1.542,0.263,2.315l77.169-48.298L196.853,466.321
	L196.853,466.321z M478.835,501.508c-0.924,0.012-1.867,0.058-2.8,0.149c-2.132,0.21-4.253,0.614-6.388,1.271
	c-17.081,5.24-26.532,23.037-21.292,40.117c5.241,17.081,23.04,26.532,40.119,21.292c17.081-5.241,26.531-23.038,21.291-40.118
	c-4.298-14.009-17.055-22.869-30.929-22.711H478.835z M87.968,503.636c-1.62-0.016-3.271,0.104-4.93,0.338
	c-17.69,2.491-29.797,18.579-27.306,36.27c2.492,17.69,18.58,29.797,36.271,27.306s29.797-18.58,27.306-36.271
	c-2.18-15.479-14.768-26.675-29.733-27.566C89.042,503.68,88.509,503.643,87.968,503.636L87.968,503.636z"/>
</svg>
