<?xml version="1.0" encoding="utf-8"?>
<!-- Generator: Adobe Illustrator 16.0.0, SVG Export Plug-In . SVG Version: 6.00 Build 0)  -->
<!DOCTYPE svg PUBLIC "-//W3C//DTD SVG 1.1//EN" "http://www.w3.org/Graphics/SVG/1.1/DTD/svg11.dtd">
<svg version="1.1" id="Layer_1" xmlns="http://www.w3.org/2000/svg" xmlns:xlink="http://www.w3.org/1999/xlink" x="0px" y="0px"
	 width="567.048px" height="527.569px" viewBox="0 0 567.048 527.569" enable-background="new 0 0 567.048 527.569"
	 xml:space="preserve">
<path fill="#C3996C" d="M419.142,0c-50.491,0-95.187,25.49-121.89,64.262c-5.647,7.005-10.929,14.577-15.705,22.802
	C202.435-61.468,5.022-6.119,0.093,150.862c-5.251,167.308,213.701,209.68,281.458,376.707
	c50.896-132.513,195.587-192.926,255.696-290.781c18.689-24.767,29.801-55.558,29.801-88.879c0-21.215-4.553-41.383-12.646-59.65
	c-0.117-0.315-0.243-0.617-0.366-0.929c-0.03-0.073-0.069-0.139-0.099-0.209c-15.347-40.062-46.804-66.427-83.854-78.048
	l-0.155-0.05c-15.849-5.82-32.96-9.021-50.788-9.021L419.142,0z M419.142,30.996c64.752,0,116.915,52.161,116.915,116.914
	c0,40.872-20.779,76.747-52.395,97.636c17.015-33.25,14.269-81.201-10.571-124.225c-28.71-49.726-77.951-77.174-119.507-70.325
	c18.678-12.633,41.224-20.003,65.558-20.003V30.996z"/>
</svg>
